<?xml version="1.0" encoding="utf-8"?>
<!-- Generator: Adobe Illustrator 17.1.0, SVG Export Plug-In . SVG Version: 6.00 Build 0)  -->
<!DOCTYPE svg PUBLIC "-//W3C//DTD SVG 1.1//EN" "http://www.w3.org/Graphics/SVG/1.1/DTD/svg11.dtd">
<svg version="1.1" id="Capa_3" xmlns="http://www.w3.org/2000/svg" xmlns:xlink="http://www.w3.org/1999/xlink" x="0px" y="0px"
	 viewBox="0 0 566.9 141.7" enable-background="new 0 0 566.9 141.7" xml:space="preserve">
<g>
	<path fill="#E42219" d="M539.2,126.5H159.5c-9.4,0-17.1-7.7-17.1-17.1V32.6c0-9.4,7.7-17.1,17.1-17.1h379.7
		c9.4,0,17.1,7.7,17.1,17.1v76.8C556.3,118.8,548.6,126.5,539.2,126.5z"/>
	<path fill="#0060AA" d="M112,126.8H24.6c-8.4,0-15.2-6.8-15.2-15.2V30.3c0-8.4,6.8-15.2,15.2-15.2H112c8.4,0,15.2,6.8,15.2,15.2
		v81.4C127.2,120,120.4,126.8,112,126.8z"/>
	<path fill="#FBFDFC" d="M211.3,75.1h-14.9c-1.6,0-2.9,1.3-2.9,2.9v9.5c0,1.6,1.3,2.9,2.9,2.9h22.4c1.9,0,3.5,1.6,3.5,3.5v5
		c0,1.9-1.6,3.5-3.5,3.5h-42c-1.1,0-2-0.9-2-2V44.1l-2.3-4.6c-0.4-0.8,0.2-1.7,1.1-1.7h44.9c1.3,0,2.4,1.1,2.4,2.4v7.6
		c0,1.1-0.9,2-2,2h-22.4c-1.6,0-2.9,1.3-2.9,2.9v7.6c0,1.6,1.3,2.9,2.9,2.9h20c1.2,0,2,1.3,1.5,2.4l-4,7.9
		C213.4,74.5,212.4,75.1,211.3,75.1z"/>
	<path fill="#FBFDFC" d="M233.7,38.6c5.4-0.8,15.8-1.4,24.7-1.4c11.1,0,18.8,1.4,24.1,5.1c4.4,3.1,7.7,8.7,7.7,14.6
		c0,8.3-6.5,16.2-12.9,18.2l0,0c0,0,21.2,24.7,22.7,27.2h-21.2c-1.2-1.8-19.2-24.1-19.2-24.1h-4.1v22.1c0,1.1-0.9,2-2,2H238
		c-1.1,0-2-0.9-2-2v-56L233.7,38.6z M255.6,68.7c0,0,14.2,2.2,14.2-9.3c0-9.9-13-8.7-14.2-8.5V68.7z"/>
	<path fill="#FBFDFC" d="M374.4,85.6c4.5,2,6.5,4.8,13.7,4.8c7.7,0,10.9-1.6,10.9-5.8c0-4-6.2-6.5-13.9-12c-3.6-2.6-8.7-7-8.7-16.4
		c0-11,10.6-19.5,28.2-19.5c8.4,0,10.3,2.5,14.8,4.2l-0.1,15.4c-3-1.2-6.2-5.3-13.5-5.3c-7.3,0-9.6,2-9.6,5.3
		c0,4.1,4.4,6.1,12.6,12.2c2.2,1.7,10.4,5.8,10.4,14.9c0,10.9-6.7,18.5-22.7,20.1c-8.5,0.8-17.9-1.4-22.1-3.4V85.6z"/>
	<path fill="#FBFDFC" d="M429.6,37.8l19.6,0c1.3,0,2.4,1.1,2.4,2.4v25l25.1-26.9h20.5L471.9,66c-0.7,0.8-0.8,2-0.1,2.9l23,30.8
		c0.8,1.1,0,2.7-1.4,2.7h-20l-21.8-29.5v29.5l-19,0V44.2L429.6,37.8z"/>
	<path fill="#FBFDFC" d="M524.4,37.8v64.7h-19.2V44.7l-2.9-6.9H524.4z"/>
	<path fill="#FBFDFC" d="M333.6,36.7c-20.9,0-34.4,14.5-34.4,33.9c0,18.4,12.3,32.9,33.3,32.9c20.7,0,34.7-12.9,34.7-34.1
		C367.2,51.6,355.3,36.7,333.6,36.7z M333,86.5c-9,0-16.2-7.3-16.2-16.2s7.3-16.2,16.2-16.2s16.2,7.3,16.2,16.2S342,86.5,333,86.5z"
		/>
	<path fill="#E42219" d="M112,126.8H92.8L41.7,94.1c-8.4,0-7.2-18.6-7.2-27l17.3-31.5c0-8.4,6.6-7.4,15-7.4l6.1-13.1H112
		c8.4,0,15.2,6.8,15.2,15.2v81.4C127.2,120,120.4,126.8,112,126.8z"/>
	<path fill="#FEFFFB" d="M111.5,92.6c-6.3,7.3-15.6,11.9-26,11.9c-11.1,0-21.1-5.3-27.3-13.5c40.7-9.4,36.5-35.7,36.5-39
		c0-3.4-0.4,16.4-43.1,23.5c-0.3-1.7-0.4-3.5-0.4-5.4c0-18.5,14.6-33.6,33-34.3L73.8,14.7c-0.4,0.1-0.9,0.2-1.3,0.3
		c-0.1,0-0.2,0-0.3,0.1c-25,6-43.5,28.4-43.5,55.2c0,3.7,0.4,7.3,1,10.8c-13.3,9.6-18.2,33.6-18.2,36.6c0,3.3,11.2-17.3,22.9-22.5
		c9.2,18.9,28.6,31.9,51,31.9c13.8,0,26.4-4.9,36.3-13.1L111.5,92.6z"/>
</g>
</svg>
